<?xml version="1.0" standalone="no"?>
<!DOCTYPE svg PUBLIC "-//W3C//DTD SVG 20010904//EN"
 "http://www.w3.org/TR/2001/REC-SVG-20010904/DTD/svg10.dtd">
<svg version="1.0" xmlns="http://www.w3.org/2000/svg"
 width="1024.000000pt" height="1024.000000pt" viewBox="0 0 1024.000000 1024.000000"
 preserveAspectRatio="xMidYMid meet">
<metadata>
Created by potrace 1.11, written by Peter Selinger 2001-2013
</metadata>
<g transform="translate(0.000000,1024.000000) scale(0.100000,-0.100000)"
fill="#000000" stroke="none">
<path d="M4855 10033 c6 -53 6 -272 0 -308 -2 -16 -7 -48 -9 -70 -8 -65 -14
-97 -26 -145 -6 -25 -13 -54 -15 -65 -10 -49 -27 -106 -56 -185 -17 -47 -31
-91 -31 -97 -1 -7 -5 -13 -9 -13 -4 0 -10 -12 -13 -27 -7 -26 -99 -216 -143
-293 -51 -90 -118 -195 -125 -198 -4 -2 -8 -8 -8 -13 0 -20 -370 -516 -409
-549 -4 -3 -26 -30 -51 -60 -25 -30 -52 -61 -60 -70 -8 -9 -37 -42 -65 -74
-27 -32 -61 -71 -75 -86 -14 -15 -44 -50 -66 -76 -23 -27 -52 -61 -65 -75 -13
-14 -51 -56 -84 -93 -66 -74 -92 -104 -145 -162 -19 -22 -62 -70 -95 -109 -33
-38 -71 -82 -85 -96 -22 -24 -49 -55 -127 -145 -10 -12 -36 -43 -58 -70 -22
-26 -48 -57 -57 -68 -32 -38 -139 -171 -154 -191 -8 -11 -26 -33 -40 -50 -14
-16 -33 -41 -42 -55 -9 -14 -37 -52 -63 -85 -63 -82 -219 -313 -219 -324 0 -5
-3 -11 -8 -13 -7 -3 -66 -99 -117 -193 -15 -27 -37 -66 -48 -85 -12 -19 -22
-41 -24 -49 -1 -8 -7 -17 -13 -21 -7 -4 -10 -9 -9 -11 2 -2 -11 -33 -28 -69
-54 -115 -113 -256 -120 -285 -1 -5 -11 -35 -23 -65 -17 -47 -40 -121 -55
-180 -2 -8 -4 -16 -5 -17 -3 -3 -3 -3 -15 -58 -4 -22 -9 -44 -11 -50 -5 -19
-12 -53 -18 -86 -3 -19 -7 -43 -10 -54 -2 -11 -7 -46 -11 -79 -3 -32 -9 -70
-11 -84 -3 -14 -7 -75 -9 -136 -2 -61 -5 -113 -6 -116 -1 -3 0 -9 1 -15 1 -5
3 -55 5 -110 2 -55 6 -120 9 -145 11 -78 18 -124 23 -145 2 -11 6 -31 9 -45 3
-14 7 -33 10 -42 3 -10 7 -30 10 -45 20 -111 165 -446 249 -571 19 -30 35 -58
35 -63 0 -5 5 -9 10 -9 6 0 10 -5 10 -10 0 -6 5 -16 10 -23 12 -14 85 -111
115 -151 11 -15 29 -38 40 -50 11 -13 37 -42 57 -64 20 -23 35 -42 33 -42 -7
0 292 -296 364 -360 40 -36 91 -81 112 -100 40 -36 50 -45 136 -117 27 -24 63
-54 79 -68 38 -34 44 -38 79 -61 17 -10 37 -24 45 -31 8 -7 94 -72 190 -144
96 -73 180 -138 186 -143 6 -6 28 -24 50 -41 67 -53 208 -171 245 -205 15 -14
60 -54 100 -90 278 -250 509 -530 602 -730 60 -128 69 -166 72 -290 3 -120 2
-126 -61 -327 -14 -46 -23 -87 -20 -92 4 -5 0 -12 -6 -14 -9 -4 -9 -6 -1 -6 6
-1 22 14 34 32 13 17 26 34 29 37 4 3 20 27 36 53 16 27 37 61 46 75 73 114
170 370 183 482 2 14 7 50 11 80 10 75 6 340 -6 340 -3 0 -6 12 -6 28 -2 32
-9 68 -30 142 -9 30 -17 60 -19 65 -1 6 -7 24 -14 40 -6 17 -17 44 -23 60 -26
71 -63 151 -76 167 -7 9 -14 22 -15 30 -2 13 -131 242 -148 262 -5 6 -28 40
-50 76 -23 36 -44 67 -48 70 -10 8 -51 69 -51 75 0 3 -4 11 -10 18 -43 53 -60
76 -60 81 0 3 -7 14 -16 24 -9 9 -67 87 -130 172 -132 177 -139 188 -188 253
-20 26 -36 52 -36 57 0 6 -4 10 -10 10 -5 0 -10 7 -10 15 0 8 -4 15 -9 15 -5
0 -20 17 -32 38 -13 20 -37 55 -54 78 -106 141 -263 387 -296 462 -7 17 -17
32 -21 32 -5 0 -7 3 -6 8 1 4 -13 38 -30 76 -18 38 -32 73 -32 78 0 4 -4 16
-9 26 -21 37 -58 169 -67 237 -3 22 -8 47 -11 55 -8 20 -12 332 -5 345 4 6 7
24 8 40 4 88 56 288 114 435 22 58 140 302 149 310 3 3 17 25 31 50 13 25 28
50 32 55 4 6 31 46 60 90 29 44 56 82 60 83 4 2 8 8 8 14 0 8 43 72 60 88 3 3
44 57 91 120 99 131 118 156 139 179 8 9 51 62 95 116 44 55 84 105 90 111 50
54 323 387 408 498 51 65 99 126 107 136 8 10 22 28 30 40 8 12 20 28 25 34
34 39 170 244 237 356 53 90 162 299 160 310 0 3 5 14 11 25 6 11 12 22 12 25
1 3 7 19 14 35 13 31 40 103 45 120 2 6 6 17 9 25 9 21 55 199 61 233 3 15 7
35 10 45 2 9 8 46 11 82 4 36 9 79 11 95 5 40 5 249 0 300 -20 209 -49 350
-113 546 -15 46 -27 86 -28 89 -1 3 -7 19 -14 35 -6 17 -17 44 -23 60 -79 210
-281 567 -407 721 -14 18 -35 44 -46 58 -33 43 -125 136 -134 136 -5 0 -8 -17
-6 -37z"/>
<path d="M5750 7604 c0 -10 55 -109 62 -112 4 -2 8 -11 8 -20 0 -9 7 -30 15
-46 34 -65 48 -150 49 -291 1 -157 -7 -221 -39 -350 -9 -33 -18 -71 -21 -85
-12 -58 -110 -326 -135 -372 -7 -12 -14 -28 -15 -34 -1 -6 -27 -63 -58 -126
-31 -64 -56 -120 -56 -127 0 -6 -4 -11 -9 -11 -5 0 -13 -9 -16 -21 -4 -11 -29
-59 -56 -106 -27 -46 -49 -87 -49 -89 0 -3 -16 -30 -35 -60 -19 -30 -35 -56
-35 -59 0 -6 -113 -186 -171 -273 -27 -40 -49 -75 -49 -78 0 -4 -13 -23 -30
-44 -16 -21 -30 -43 -30 -49 0 -6 -3 -11 -8 -11 -4 0 -18 -18 -32 -40 -14 -22
-29 -40 -34 -40 -5 0 -7 -3 -3 -6 6 -6 -41 -76 -55 -82 -5 -2 -8 -10 -8 -18 0
-8 -4 -14 -9 -14 -5 0 -13 -9 -16 -20 -4 -11 -16 -31 -28 -43 -12 -12 -28 -34
-36 -49 -8 -16 -18 -28 -23 -28 -4 0 -8 -7 -8 -15 0 -8 -4 -15 -9 -15 -9 0
-74 -128 -85 -165 -17 -61 -29 -154 -30 -220 0 -68 13 -205 20 -217 3 -4 7
-17 10 -28 21 -97 40 -150 100 -275 21 -44 38 -82 39 -85 0 -3 9 -18 19 -35
64 -102 91 -140 122 -175 l36 -40 29 17 c31 19 206 196 322 326 247 277 433
530 617 837 34 57 167 345 160 345 -1 0 3 20 10 45 19 70 21 82 27 130 3 25 7
46 8 48 3 4 66 -123 66 -133 0 -2 11 -29 24 -60 14 -30 27 -65 29 -79 2 -13 9
-34 16 -45 6 -12 8 -21 6 -21 -3 0 -2 -10 3 -23 40 -106 46 -428 11 -567 -5
-19 -12 -51 -15 -70 -7 -39 -8 -45 -65 -227 -22 -72 -48 -149 -57 -170 -9 -21
-17 -40 -18 -43 -4 -14 -20 -50 -41 -98 -13 -29 -24 -55 -24 -57 0 -14 -169
-341 -226 -440 -13 -22 -27 -47 -31 -55 -4 -8 -25 -44 -48 -80 -23 -36 -44
-73 -48 -82 -3 -10 -11 -18 -17 -18 -5 0 -10 -5 -10 -11 0 -11 -104 -171 -172
-266 -32 -44 -37 -58 -32 -88 9 -60 92 -242 130 -286 8 -8 14 -19 14 -24 0 -4
18 -34 40 -67 22 -33 40 -64 40 -69 0 -5 5 -9 10 -9 6 0 10 -5 10 -10 0 -6 5
-16 10 -23 10 -12 67 -90 149 -207 22 -30 47 -64 58 -75 10 -11 32 -38 48 -60
17 -21 37 -47 45 -55 97 -105 135 -140 151 -140 20 0 73 51 211 203 46 50 95
104 110 120 15 15 37 42 50 60 12 18 30 39 39 47 21 19 200 248 254 325 22 31
45 62 50 68 6 7 23 32 40 57 16 25 32 47 35 50 3 3 14 21 24 40 11 19 22 37
26 40 10 8 134 220 165 280 15 30 33 58 39 62 6 4 8 8 4 8 -5 0 10 35 33 78
22 42 40 78 40 79 0 2 9 24 21 50 12 27 22 54 24 62 1 7 7 18 13 24 6 6 11 17
11 23 0 7 5 25 12 41 6 15 12 33 14 40 1 7 9 26 17 42 9 17 19 45 22 63 4 18
12 39 17 46 6 6 8 12 5 12 -3 0 4 28 15 63 11 34 21 69 23 77 2 8 10 42 19 75
8 33 18 76 21 95 3 19 10 58 15 85 8 46 12 74 25 195 5 40 17 240 16 265 -1
72 -11 249 -15 280 -3 22 -8 63 -11 91 -2 28 -14 98 -26 155 -26 131 -27 134
-29 134 -2 0 -7 19 -14 56 -3 14 -15 55 -27 90 -11 35 -22 73 -25 84 -2 11 -8
29 -13 40 -5 11 -26 63 -46 115 -42 109 -146 333 -157 338 -5 2 -8 9 -8 16 0
7 -11 30 -25 50 -13 20 -22 36 -19 36 3 0 -4 13 -15 29 -12 16 -21 34 -21 40
0 6 -4 11 -10 11 -5 0 -10 4 -10 10 0 13 -178 289 -222 345 -5 6 -38 51 -76
100 -37 50 -71 95 -77 101 -5 6 -21 26 -35 44 -27 35 -34 44 -113 134 -154
177 -302 326 -507 510 -44 40 -174 141 -225 177 -27 19 -51 37 -53 42 -2 4
-10 7 -18 7 -8 0 -14 5 -14 10 0 6 -6 10 -14 10 -8 0 -16 3 -18 8 -3 8 -88 53
-88 46z"/>
</g>
</svg>
